<?xml version="1.0" encoding="utf-8"?>
<!-- Generator: Adobe Illustrator 17.0.0, SVG Export Plug-In . SVG Version: 6.00 Build 0)  -->
<!DOCTYPE svg PUBLIC "-//W3C//DTD SVG 1.1//EN" "http://www.w3.org/Graphics/SVG/1.1/DTD/svg11.dtd">
<svg version="1.1" id="Layer_1" xmlns="http://www.w3.org/2000/svg" xmlns:xlink="http://www.w3.org/1999/xlink" x="0px" y="0px"
	 width="93.944px" height="50px" viewBox="0 0 93.944 50" enable-background="new 0 0 93.944 50" xml:space="preserve">
<g display="none">
	<path display="inline" fill="#010101" d="M4.346,33.173c-0.162,0-0.242,0-0.242,0s0-0.058,0-0.172c0-0.115,0.031-0.198,0.094-0.25
		c0.5-0.385,0.952-1.125,1.358-2.218c0.156-0.447,0.328-0.968,0.516-1.562l0.656-2.155c1.238-4.04,3.181-8.314,5.825-12.823
		l-4.186,5.17l-2.999,3.483L3.51,24.724c-3.77,4.123-6.711,6.674-8.824,7.652c-0.771,0.354-1.449,0.531-2.038,0.531
		c-0.588,0-1.08-0.055-1.476-0.164c-0.395-0.109-0.724-0.263-0.984-0.46c-0.51-0.385-0.765-0.88-0.765-1.484
		c0-0.416,0.119-0.713,0.358-0.89c0.354-0.281,0.667-0.422,0.938-0.422c0.635,0,0.953,0.24,0.953,0.718
		c0,0.208-0.089,0.391-0.266,0.547c-0.178,0.156-0.403,0.234-0.68,0.234c-0.275,0-0.502-0.052-0.68-0.156v0.094
		c0,0.458,0.201,0.833,0.602,1.125c0.401,0.291,0.935,0.437,1.601,0.437c0.667,0,1.338-0.146,2.015-0.437
		c0.677-0.292,1.469-0.776,2.374-1.453c1.947-1.437,4.285-3.686,7.013-6.747l4.326-4.966c3.551-4.248,5.55-6.705,5.997-7.372
		c0.188-0.229,0.323-0.344,0.406-0.344s0.125,0.037,0.125,0.109c0,0.073-0.021,0.151-0.063,0.234l-0.219,0.406
		c-0.385,0.635-0.68,1.315-0.882,2.038c-0.203,0.724-0.359,1.296-0.469,1.718c-0.109,0.421-0.237,0.878-0.383,1.367l-0.5,1.655
		c-0.739,2.333-1.635,4.503-2.686,6.513l-2.717,4.889l4.732-5.623l2.078-2.374l2.155-2.374l2.108-2.249
		c3.976-4.123,7.319-6.622,10.026-7.497c0.916-0.302,1.871-0.456,2.866-0.461c0.994-0.005,1.77,0.234,2.327,0.719
		c0.557,0.484,0.84,1.169,0.851,2.054c0.021,0.989-0.479,2.093-1.499,3.311c-1.062,1.25-2.396,2.259-3.998,3.03
		c-0.375,0.177-0.643,0.266-0.805,0.266c-0.161,0-0.242-0.039-0.242-0.117c0-0.078,0.2-0.198,0.602-0.359
		c0.4-0.161,0.916-0.455,1.546-0.882c0.63-0.427,1.2-0.906,1.71-1.437c1.135-1.218,1.703-2.399,1.703-3.545
		c0-0.823-0.222-1.461-0.664-1.914C31.641,10.191,31,9.965,30.162,9.965c-0.839,0-1.747,0.182-2.726,0.547
		c-0.979,0.364-2.046,0.947-3.201,1.749c-2.28,1.572-5.035,4.123-8.263,7.653l-3.639,4.076l-3.03,3.561l-4.107,4.888
		C4.79,32.928,4.507,33.173,4.346,33.173z M1.37,14.916c-0.188,0.218-0.386,0.328-0.594,0.328s-0.39-0.065-0.546-0.195
		c-0.156-0.13-0.234-0.291-0.234-0.484c0-0.192,0.064-0.362,0.195-0.508c0.13-0.146,0.304-0.218,0.522-0.218
		c0.219,0,0.419,0.049,0.602,0.148c0.183,0.099,0.346,0.242,0.492,0.43c0.313,0.406,0.469,0.919,0.469,1.539
		c0,0.619-0.141,1.186-0.422,1.702c-0.281,0.516-0.651,0.956-1.109,1.32c-0.979,0.781-2.108,1.171-3.389,1.171
		c-1.302,0-2.374-0.359-3.218-1.078c-0.936-0.781-1.405-1.859-1.405-3.233c0-1.478,0.65-2.712,1.952-3.702
		c1.313-0.999,3.004-1.499,5.076-1.499c1.238,0,2.179,0.097,2.819,0.289c0.64,0.193,1.194,0.385,1.663,0.578
		c0.469,0.192,0.937,0.403,1.405,0.632l1.593,0.734c0.812,0.333,1.474,0.5,1.983,0.5c0.989,0,1.869-0.344,2.64-1.031
		c0.052-0.042,0.112-0.063,0.18-0.063s0.102,0.037,0.102,0.109c0,0.084-0.073,0.209-0.219,0.375
		c-0.614,0.614-1.541,1.052-2.78,1.312c-0.333,0.063-0.64,0.094-0.921,0.094c-0.281,0-0.614-0.031-1-0.094
		c-0.385-0.063-0.775-0.146-1.171-0.25c-0.802-0.229-1.528-0.531-2.179-0.906c-0.651-0.375-1.208-0.669-1.671-0.882
		c-0.464-0.213-0.878-0.377-1.242-0.492c-0.604-0.198-1.28-0.297-2.03-0.297c-0.749,0-1.471,0.117-2.163,0.351
		c-0.692,0.234-1.304,0.56-1.835,0.976c-1.135,0.916-1.702,2.036-1.702,3.358c0,1.114,0.369,2.03,1.108,2.749
		c0.75,0.729,1.734,1.093,2.952,1.093c1.155,0,2.171-0.338,3.046-1.015c0.968-0.729,1.452-1.65,1.452-2.764
		C1.792,15.577,1.651,15.217,1.37,14.916z"/>
	<path display="inline" fill="#010101" d="M21.97,32.907c-1.041,0-1.562-0.323-1.562-0.968c0-0.531,0.302-1.197,0.906-1.999
		l0.983-1.25l-0.156-0.063c-1.749,2.155-3.399,3.509-4.95,4.06c-0.428,0.146-0.797,0.219-1.109,0.219
		c-1.28,0-1.921-0.682-1.921-2.046c0-1.604,0.641-3.134,1.921-4.592c1.895-2.207,3.801-3.514,5.716-3.92
		c0.573-0.115,1.063-0.172,1.469-0.172c0.406,0,0.726,0.029,0.96,0.086c0.234,0.057,0.44,0.138,0.617,0.242
		c0.375,0.239,0.563,0.534,0.563,0.882c0,0.349-0.063,0.679-0.188,0.992l1.53-1.89c0.281,0.083,0.541,0.125,0.781,0.125
		c0.614,0,1.057-0.021,1.327-0.063l-5.263,6.341c-1.25,1.457-1.875,2.483-1.875,3.077c0,0.333,0.198,0.5,0.594,0.5
		s0.852-0.12,1.367-0.359c0.515-0.24,1.027-0.547,1.538-0.921c0.51-0.375,1.007-0.792,1.491-1.249
		c0.484-0.458,0.932-0.906,1.344-1.343c0.411-0.438,0.773-0.843,1.085-1.218l0.75-0.843l0.328,0.266l-0.797,0.906
		C26.421,31.174,23.938,32.907,21.97,32.907z M17.644,27.285c-1.468,1.781-2.202,3.238-2.202,4.373c0,0.521,0.234,0.781,0.703,0.781
		c1.521,0,3.712-1.681,6.575-5.044l1.312-1.578c0.625-0.947,0.938-1.634,0.938-2.062c0-0.728-0.364-1.093-1.093-1.093
		c-0.99,0-2.411,0.844-4.265,2.53C18.977,25.776,18.32,26.473,17.644,27.285z"/>
	<path display="inline" fill="#010101" d="M30.325,32.579c-0.239-0.052-0.541-0.078-0.905-0.078c-0.635,0-1.125,0.052-1.468,0.156
		l5.419-7.747c0.677-0.947,1.025-1.509,1.047-1.687c0.041-0.344-0.068-0.516-0.328-0.516c-0.386,0-1.344,0.953-2.874,2.858
		l-0.999,1.234c-0.084,0.042-0.17,0.018-0.258-0.07c-0.089-0.088-0.112-0.154-0.07-0.195c0.302-0.323,0.643-0.731,1.022-1.226
		c0.38-0.495,0.778-0.971,1.195-1.429c1.02-1.135,1.868-1.702,2.546-1.702c1.145,0,1.509,0.588,1.093,1.765
		c-0.083,0.25-0.266,0.573-0.547,0.968l-3.279,4.561l0.078,0.172c2.801-3.238,4.856-5.331,6.169-6.278
		c1.041-0.792,2.004-1.187,2.89-1.187c0.604,0,1.082,0.167,1.437,0.5c0.281,0.281,0.414,0.578,0.398,0.891
		c-0.016,0.312-0.037,0.549-0.063,0.711c-0.026,0.162-0.065,0.326-0.117,0.492c-0.125,0.344-0.344,0.76-0.656,1.25
		c2.229-2.27,3.915-3.524,5.061-3.764c0.229-0.052,0.481-0.078,0.757-0.078c0.276,0,0.531,0.047,0.766,0.141
		c0.234,0.094,0.424,0.213,0.57,0.359c0.271,0.271,0.403,0.596,0.398,0.976c-0.006,0.38-0.078,0.768-0.219,1.164
		c-0.141,0.396-0.378,0.865-0.711,1.406c-0.697,1.114-1.874,2.567-3.529,4.357c-0.688,0.718-1.047,1.138-1.078,1.257
		c-0.031,0.12-0.047,0.211-0.047,0.273l-0.109,0.016c0,0.25,0.297,0.375,0.891,0.375c0.594,0,1.138-0.133,1.632-0.398
		c0.494-0.266,0.997-0.604,1.507-1.015c0.511-0.411,1.008-0.862,1.492-1.351c0.483-0.489,0.924-0.953,1.319-1.39l1-1.156
		c0.271-0.333,0.452-0.552,0.546-0.656l0.328,0.266c-0.104,0.104-0.299,0.331-0.585,0.679c-0.287,0.349-0.636,0.753-1.047,1.211
		c-0.411,0.458-0.872,0.937-1.382,1.437c-0.511,0.499-1.036,0.958-1.578,1.374c-1.26,0.968-2.316,1.453-3.17,1.453
		c-0.906,0-1.546-0.239-1.921-0.718c-0.115-0.146-0.172-0.318-0.172-0.516c0-0.198,0.033-0.427,0.102-0.687
		c0.067-0.26,0.221-0.588,0.461-0.984c0.479-0.813,1.176-1.734,2.093-2.765c0.916-1.031,1.512-1.723,1.788-2.077
		c0.275-0.354,0.502-0.661,0.679-0.921c0.323-0.51,0.484-0.896,0.484-1.156c0-0.375-0.266-0.563-0.796-0.563
		c-1.042,0-2.843,1.302-5.404,3.905c-1.093,1.104-2.312,2.504-3.654,4.201l-1.453,1.905c-0.239-0.052-0.541-0.078-0.905-0.078
		c-0.594,0-1.083,0.052-1.469,0.156c1.541-1.884,2.39-2.926,2.546-3.123c2.343-3.092,3.64-4.841,3.89-5.248
		c0.343-0.594,0.515-1.005,0.515-1.234c0-0.323-0.255-0.484-0.765-0.484c-0.678,0-1.469,0.365-2.374,1.093
		c-1.905,1.521-4.149,3.858-6.732,7.013L30.325,32.579z"/>
	<path display="inline" fill="#010101" d="M58.228,31.525c-0.661,0.422-1.374,0.768-2.14,1.038
		c-0.766,0.271-1.491,0.406-2.179,0.406s-1.21-0.07-1.569-0.211c-0.359-0.141-0.653-0.336-0.883-0.585
		c-0.979-1.062-0.974-2.629,0.016-4.701c0.427-0.916,1.072-1.751,1.936-2.507c0.864-0.755,1.624-1.32,2.28-1.694
		c1.271-0.729,2.463-1.093,3.576-1.093c1.104,0,1.682,0.344,1.734,1.031c0.072,1.114-1.281,2.327-4.061,3.639
		c-1.021,0.479-2.307,0.974-3.858,1.483c-0.614,0.999-0.921,1.814-0.921,2.444c0,0.63,0.164,1.078,0.492,1.343
		c0.327,0.265,0.807,0.398,1.437,0.398c0.63,0,1.312-0.135,2.046-0.406c0.734-0.271,1.421-0.614,2.062-1.031
		c0.641-0.417,1.221-0.87,1.741-1.359c0.521-0.489,0.981-0.958,1.383-1.406c0.4-0.447,0.729-0.836,0.983-1.164
		c0.255-0.328,0.43-0.533,0.524-0.617l0.328,0.266c-0.136,0.114-0.342,0.349-0.617,0.703c-0.276,0.354-0.625,0.757-1.047,1.21
		c-0.421,0.453-0.905,0.929-1.452,1.429C59.492,30.643,58.889,31.104,58.228,31.525z M53.44,27.785
		c3.145-1.104,5.17-2.202,6.075-3.295c0.302-0.364,0.453-0.719,0.453-1.062c0-0.583-0.271-0.875-0.812-0.875
		c-0.959,0-2.155,0.838-3.593,2.515C54.565,26.234,53.857,27.139,53.44,27.785z"/>
</g>
<linearGradient id="SVGID_1_" gradientUnits="userSpaceOnUse" x1="-364.8658" y1="290.895" x2="-266.8055" y2="290.895" gradientTransform="matrix(0.9858 -0.1677 0.1677 0.9858 308.2272 -314.622)">
	<stop  offset="0" style="stop-color:#C7982E"/>
	<stop  offset="0.1507" style="stop-color:#B47F2B"/>
	<stop  offset="0.9257" style="stop-color:#B47F2B"/>
	<stop  offset="0.9351" style="stop-color:#B7832C"/>
	<stop  offset="1" style="stop-color:#CEA134"/>
</linearGradient>
<path fill="url(#SVGID_1_)" d="M0,49.051c0,0,0.069-0.171,0.201-0.504c0.126-0.334,0.346-0.818,0.65-1.446
	c0.62-1.239,1.659-3.045,3.529-4.924c1.855-1.873,4.625-3.727,8.169-4.854c3.529-1.17,7.741-1.599,12.252-1.433
	c1.121,0.056,2.294,0.147,3.427,0.256c1.145,0.104,2.312,0.211,3.499,0.319c2.375,0.213,4.827,0.448,7.345,0.693
	c5.036,0.487,10.341,0.977,15.814,1.378c1.369,0.115,2.747,0.188,4.135,0.27c0.695,0.046,1.389,0.057,2.088,0.087
	c0.699,0.023,1.4,0.067,2.1,0.071c0.701,0.013,1.405,0.025,2.111,0.038c0.704-0.008,1.41-0.017,2.117-0.026
	c0.709-0.004,1.412-0.057,2.121-0.081c0.353-0.02,0.711-0.022,1.063-0.056l1.059-0.095l1.062-0.094l1.053-0.148l1.056-0.149
	c0.353-0.047,0.695-0.136,1.044-0.202l1.044-0.214l0.241-0.05l0.265-0.071l0.531-0.141c0.366-0.089,0.672-0.204,1.01-0.305
	c0.331-0.095,0.662-0.231,0.995-0.349c2.638-1.008,5.128-2.512,7.14-4.542c1.011-1.007,1.915-2.124,2.694-3.325
	c0.772-1.206,1.393-2.505,1.89-3.846c0.498-1.341,0.838-2.738,1.041-4.149c0.194-1.413,0.229-2.842,0.119-4.251
	c-0.048-0.706-0.152-1.404-0.274-2.097c-0.144-0.688-0.306-1.371-0.527-2.033c-0.42-1.332-1.002-2.599-1.723-3.765
	c-1.453-2.325-3.5-4.211-5.858-5.37c-2.35-1.182-4.948-1.69-7.485-1.691c-1.271-0.008-2.531,0.099-3.765,0.29
	c-0.308,0.054-0.617,0.093-0.921,0.158c-0.305,0.063-0.609,0.127-0.911,0.19l-0.057,0.012c-0.001,0-0.079,0.016-0.015,0.002
	l-0.116,0.03l-0.232,0.061l-0.463,0.121c-0.308,0.081-0.628,0.156-0.881,0.26c-0.269,0.095-0.537,0.19-0.804,0.284
	c-0.266,0.108-0.529,0.237-0.793,0.353c-0.131,0.06-0.265,0.116-0.393,0.18l-0.372,0.211c-0.243,0.146-0.504,0.265-0.731,0.43
	c-0.951,0.602-1.777,1.335-2.478,2.146l-0.256,0.309c-0.087,0.101-0.171,0.205-0.242,0.318c-0.149,0.22-0.297,0.439-0.444,0.657
	c-0.127,0.231-0.253,0.46-0.379,0.689c-0.124,0.229-0.212,0.475-0.322,0.709c-0.395,0.955-0.656,1.949-0.771,2.945
	c-0.121,0.996-0.067,1.989,0.089,2.935c0.038,0.237,0.075,0.474,0.142,0.701c0.065,0.227,0.104,0.462,0.183,0.682
	c0.074,0.222,0.148,0.442,0.221,0.661c0.092,0.211,0.183,0.421,0.274,0.63c0.392,0.82,0.887,1.556,1.464,2.181
	c0.578,0.627,1.257,1.1,1.955,1.477c0.698,0.391,1.465,0.569,2.208,0.696c0.378,0.026,0.75,0.091,1.122,0.059
	c0.186-0.005,0.37-0.009,0.552-0.013c0.168-0.014,0.395-0.032,0.558-0.054c1.448-0.171,2.772-0.605,3.842-1.181
	c1.075-0.574,1.9-1.321,2.401-2.12c0.511-0.794,0.711-1.614,0.749-2.281c0.05-0.672-0.028-1.199-0.085-1.548
	c-0.072-0.35-0.109-0.53-0.109-0.53s0.066,0.173,0.195,0.508c0.108,0.342,0.266,0.859,0.318,1.571
	c0.048,0.706-0.047,1.625-0.508,2.591c-0.465,0.961-1.309,1.905-2.437,2.671c-1.139,0.754-2.533,1.346-4.152,1.684
	c-0.22,0.047-0.382,0.075-0.607,0.111c-0.214,0.02-0.429,0.04-0.646,0.06c-0.435,0.061-0.886,0.023-1.346,0.016
	c-0.911-0.088-1.879-0.255-2.79-0.681c-0.913-0.404-1.798-0.976-2.551-1.722c-0.754-0.744-1.403-1.624-1.924-2.601
	c-0.529-0.974-0.889-2.059-1.109-3.191c-0.214-1.133-0.303-2.323-0.188-3.527c0.112-1.202,0.387-2.422,0.862-3.595
	c0.13-0.288,0.243-0.587,0.393-0.868c0.154-0.28,0.308-0.561,0.464-0.844c0.175-0.27,0.36-0.537,0.542-0.806
	c0.088-0.138,0.189-0.265,0.295-0.389l0.312-0.378c0.106-0.124,0.205-0.257,0.319-0.375l0.348-0.35
	c0.235-0.232,0.461-0.476,0.724-0.677c0.257-0.209,0.507-0.43,0.775-0.628c0.276-0.185,0.553-0.371,0.832-0.557
	c0.277-0.189,0.582-0.327,0.874-0.493l0.444-0.238c0.152-0.072,0.307-0.134,0.46-0.202c0.31-0.13,0.614-0.27,0.933-0.392
	c0.328-0.108,0.657-0.217,0.988-0.326c0.34-0.121,0.641-0.184,0.952-0.26l0.466-0.112l0.233-0.056l0.117-0.028
	c0.103-0.024,0.064-0.013,0.103-0.021l0.061-0.01c0.328-0.056,0.657-0.112,0.987-0.168c0.329-0.057,0.666-0.088,0.999-0.134
	c1.34-0.157,2.713-0.227,4.101-0.163c2.771,0.131,5.625,0.823,8.157,2.255c2.535,1.413,4.693,3.563,6.15,6.122
	c1.498,2.543,2.302,5.471,2.526,8.43c0.109,1.483,0.065,2.982-0.145,4.463c-0.197,1.481-0.526,2.954-1.029,4.373
	c-0.995,2.84-2.57,5.502-4.654,7.72c-1.041,1.108-2.195,2.115-3.445,2.988c-1.249,0.874-2.588,1.617-3.981,2.229
	c-0.352,0.148-0.692,0.309-1.059,0.439c-0.358,0.13-0.734,0.287-1.076,0.39l-0.522,0.171l-0.261,0.085
	c-0.003,0.002-0.069,0.021-0.087,0.026l-0.068,0.018l-0.136,0.036l-1.091,0.288c-0.364,0.09-0.726,0.204-1.093,0.274l-1.099,0.218
	l-1.099,0.214l-1.101,0.158c-2.935,0.426-5.864,0.61-8.742,0.638c-2.879,0.045-5.716-0.057-8.493-0.205
	c-5.557-0.313-10.884-0.905-15.922-1.486c-1.259-0.15-2.5-0.298-3.723-0.444c-1.221-0.155-2.423-0.307-3.605-0.456
	c-1.182-0.15-2.345-0.297-3.485-0.442c-1.152-0.152-2.226-0.272-3.311-0.366c-2.153-0.183-4.225-0.239-6.181-0.115
	c-0.49,0.021-0.969,0.076-1.445,0.115c-0.472,0.06-0.941,0.107-1.397,0.181c-0.918,0.124-1.797,0.309-2.643,0.515
	c-0.845,0.209-1.646,0.468-2.41,0.746c-0.756,0.295-1.479,0.6-2.148,0.946c-1.349,0.674-2.503,1.463-3.467,2.273
	c-0.967,0.808-1.758,1.623-2.395,2.38c-0.156,0.193-0.305,0.378-0.449,0.556c-0.143,0.18-0.267,0.361-0.393,0.529
	c-0.259,0.333-0.46,0.659-0.656,0.943c-0.37,0.577-0.64,1.034-0.811,1.348C0.09,48.89,0,49.051,0,49.051z"/>
<g>
	<path fill="#B47F2B" d="M19.059,49.878H17.64l-1.798-2.484c-0.133,0.005-0.242,0.008-0.325,0.008c-0.034,0-0.071-0.001-0.11-0.002
		c-0.039-0.001-0.08-0.003-0.121-0.006v1.544c0,0.334,0.036,0.541,0.11,0.622c0.099,0.116,0.248,0.173,0.447,0.173h0.208v0.144
		h-2.276v-0.144h0.2c0.224,0,0.385-0.074,0.482-0.22c0.055-0.08,0.082-0.273,0.082-0.575v-3.432c0-0.335-0.037-0.542-0.11-0.623
		c-0.101-0.115-0.253-0.172-0.454-0.172h-0.2v-0.146h1.935c0.564,0,0.98,0.041,1.248,0.124c0.267,0.082,0.495,0.234,0.681,0.454
		c0.187,0.22,0.28,0.484,0.28,0.789c0,0.327-0.107,0.61-0.319,0.851c-0.213,0.24-0.543,0.41-0.989,0.509l1.097,1.524
		c0.251,0.35,0.466,0.582,0.647,0.697c0.18,0.116,0.415,0.189,0.705,0.22V49.878z M15.286,47.147c0.05,0,0.093,0.001,0.129,0.002
		c0.037,0.002,0.067,0.002,0.09,0.002c0.507,0,0.888-0.11,1.146-0.329c0.257-0.219,0.386-0.499,0.386-0.838
		c0-0.332-0.104-0.602-0.312-0.808c-0.208-0.208-0.483-0.312-0.825-0.312c-0.151,0-0.356,0.025-0.615,0.074V47.147z"/>
	<path fill="#B47F2B" d="M21.922,44.445c0.689,0,1.287,0.261,1.792,0.785c0.505,0.524,0.758,1.177,0.758,1.96
		c0,0.807-0.255,1.478-0.764,2.01S22.582,50,21.859,50c-0.731,0-1.345-0.26-1.843-0.78c-0.497-0.52-0.746-1.193-0.746-2.018
		c0-0.843,0.287-1.532,0.862-2.065C20.63,44.676,21.227,44.445,21.922,44.445z M21.847,44.731c-0.475,0-0.856,0.176-1.144,0.529
		c-0.358,0.439-0.537,1.081-0.537,1.927c0,0.867,0.185,1.534,0.556,2.001c0.285,0.356,0.661,0.533,1.128,0.533
		c0.499,0,0.911-0.195,1.236-0.584c0.325-0.388,0.488-1.002,0.488-1.84c0-0.909-0.179-1.587-0.536-2.033
		C22.751,44.908,22.354,44.731,21.847,44.731z"/>
	<path fill="#B47F2B" d="M27.716,44.445c0.689,0,1.287,0.261,1.792,0.785c0.505,0.524,0.758,1.177,0.758,1.96
		c0,0.807-0.255,1.478-0.764,2.01S28.376,50,27.653,50c-0.731,0-1.345-0.26-1.843-0.78c-0.497-0.52-0.746-1.193-0.746-2.018
		c0-0.843,0.287-1.532,0.862-2.065C26.424,44.676,27.021,44.445,27.716,44.445z M27.641,44.731c-0.475,0-0.856,0.176-1.144,0.529
		c-0.358,0.439-0.537,1.081-0.537,1.927c0,0.867,0.185,1.534,0.556,2.001c0.285,0.356,0.661,0.533,1.128,0.533
		c0.499,0,0.911-0.195,1.236-0.584c0.325-0.388,0.488-1.002,0.488-1.84c0-0.909-0.179-1.587-0.536-2.033
		C28.545,44.908,28.148,44.731,27.641,44.731z"/>
	<path fill="#B47F2B" d="M35.217,44.566l0.059,1.246h-0.149c-0.029-0.219-0.068-0.376-0.117-0.47
		c-0.081-0.152-0.189-0.263-0.323-0.335c-0.134-0.072-0.312-0.108-0.531-0.108h-0.748v4.059c0,0.326,0.035,0.53,0.106,0.611
		c0.099,0.11,0.252,0.165,0.459,0.165h0.184v0.144h-2.252v-0.144h0.188c0.224,0,0.384-0.069,0.478-0.204
		c0.057-0.084,0.086-0.275,0.086-0.572v-4.059h-0.638c-0.248,0-0.425,0.018-0.529,0.055c-0.136,0.049-0.252,0.144-0.348,0.286
		c-0.097,0.14-0.154,0.331-0.172,0.572h-0.149l0.063-1.246H35.217z"/>
	<path fill="#B47F2B" d="M35.37,44.566h1.441l3.248,3.984v-3.063c0-0.327-0.037-0.531-0.11-0.612
		c-0.096-0.11-0.249-0.164-0.458-0.164h-0.184v-0.146h1.849v0.146h-0.188c-0.224,0-0.384,0.068-0.478,0.203
		c-0.058,0.084-0.087,0.275-0.087,0.573v4.477h-0.141l-3.502-4.278v3.272c0,0.326,0.035,0.53,0.106,0.611
		c0.099,0.11,0.252,0.165,0.459,0.165h0.188v0.144h-1.849v-0.144h0.184c0.227,0,0.388-0.069,0.482-0.204
		c0.057-0.084,0.086-0.275,0.086-0.572v-3.694c-0.154-0.18-0.271-0.299-0.35-0.357c-0.08-0.057-0.197-0.112-0.351-0.161
		c-0.076-0.024-0.191-0.035-0.344-0.035V44.566z"/>
	<path fill="#B47F2B" d="M42.946,44.856v2.1h1.166c0.303,0,0.506-0.045,0.609-0.137c0.135-0.12,0.211-0.331,0.227-0.634h0.143v1.849
		h-0.143c-0.037-0.258-0.074-0.424-0.111-0.497c-0.047-0.091-0.123-0.163-0.232-0.215c-0.107-0.052-0.271-0.079-0.494-0.079h-1.166
		v1.751c0,0.235,0.01,0.378,0.031,0.429c0.02,0.05,0.057,0.091,0.111,0.121c0.051,0.03,0.152,0.045,0.297,0.045h0.902
		c0.299,0,0.519-0.02,0.654-0.063c0.135-0.042,0.266-0.124,0.391-0.247c0.162-0.162,0.328-0.406,0.498-0.733h0.156l-0.459,1.332
		h-4.093v-0.144h0.188c0.126,0,0.244-0.031,0.357-0.09c0.084-0.042,0.14-0.105,0.17-0.189c0.03-0.083,0.045-0.254,0.045-0.513V45.49
		c0-0.336-0.034-0.544-0.101-0.622c-0.094-0.105-0.251-0.157-0.47-0.157h-0.188v-0.146h4.093l0.059,1.164h-0.152
		c-0.055-0.28-0.117-0.471-0.182-0.576c-0.068-0.105-0.166-0.184-0.297-0.24c-0.105-0.039-0.287-0.058-0.551-0.058H42.946z"/>
	<path fill="#B47F2B" d="M49.445,46.936l1.139,1.7c0.317,0.47,0.551,0.768,0.704,0.891c0.153,0.124,0.346,0.193,0.581,0.206v0.144
		h-2.28v-0.144c0.152-0.003,0.264-0.018,0.337-0.047c0.055-0.024,0.1-0.059,0.135-0.108c0.035-0.049,0.053-0.097,0.053-0.148
		c0-0.059-0.012-0.12-0.036-0.18c-0.018-0.044-0.09-0.159-0.215-0.344l-0.901-1.363l-1.113,1.425
		c-0.118,0.152-0.188,0.253-0.211,0.303c-0.024,0.051-0.036,0.105-0.036,0.159c0,0.084,0.036,0.153,0.106,0.208
		c0.071,0.054,0.205,0.086,0.404,0.094v0.144h-1.884v-0.144c0.133-0.013,0.248-0.041,0.345-0.083
		c0.162-0.068,0.316-0.159,0.462-0.274c0.147-0.115,0.314-0.291,0.501-0.529l1.254-1.583l-1.046-1.532
		c-0.285-0.415-0.527-0.688-0.724-0.817c-0.199-0.129-0.427-0.198-0.686-0.205v-0.146h2.456v0.146
		c-0.209,0.007-0.352,0.041-0.429,0.101c-0.077,0.06-0.116,0.127-0.116,0.2c0,0.096,0.063,0.238,0.189,0.423l0.815,1.218
		l0.944-1.195c0.11-0.141,0.177-0.238,0.202-0.29c0.025-0.052,0.037-0.106,0.037-0.161c0-0.054-0.015-0.103-0.047-0.144
		c-0.039-0.055-0.088-0.093-0.149-0.116c-0.059-0.023-0.184-0.035-0.372-0.037v-0.146h1.884v0.146
		c-0.149,0.007-0.271,0.031-0.365,0.07c-0.14,0.06-0.271,0.141-0.387,0.243c-0.118,0.102-0.284,0.29-0.498,0.565L49.445,46.936z"/>
	<path fill="#B47F2B" d="M56.606,44.566l0.058,1.246h-0.149c-0.029-0.219-0.068-0.376-0.117-0.47
		c-0.082-0.152-0.19-0.263-0.324-0.335c-0.134-0.072-0.312-0.108-0.531-0.108h-0.748v4.059c0,0.326,0.035,0.53,0.106,0.611
		c0.099,0.11,0.252,0.165,0.458,0.165h0.184v0.144h-2.252v-0.144h0.188c0.225,0,0.384-0.069,0.479-0.204
		c0.057-0.084,0.086-0.275,0.086-0.572v-4.059h-0.638c-0.248,0-0.424,0.018-0.529,0.055c-0.136,0.049-0.252,0.144-0.349,0.286
		c-0.096,0.14-0.154,0.331-0.172,0.572h-0.149l0.063-1.246H56.606z"/>
	<path fill="#B47F2B" d="M60.375,47.03h2.469V45.51c0-0.272-0.017-0.45-0.051-0.536c-0.026-0.066-0.081-0.122-0.164-0.169
		c-0.113-0.063-0.232-0.093-0.357-0.093h-0.189v-0.146h2.273v0.146h-0.189c-0.125,0-0.244,0.03-0.357,0.09
		c-0.083,0.041-0.14,0.105-0.17,0.19c-0.031,0.085-0.045,0.258-0.045,0.519v3.429c0,0.268,0.016,0.446,0.051,0.532
		c0.026,0.066,0.079,0.122,0.16,0.169c0.115,0.063,0.236,0.094,0.361,0.094h0.189v0.144h-2.273v-0.144h0.189
		c0.216,0,0.374-0.065,0.473-0.193c0.066-0.083,0.098-0.285,0.098-0.603V47.32h-2.469v1.618c0,0.268,0.017,0.446,0.051,0.532
		c0.027,0.066,0.081,0.122,0.165,0.169c0.112,0.063,0.231,0.094,0.357,0.094h0.192v0.144h-2.276v-0.144h0.188
		c0.219,0,0.379-0.065,0.479-0.193c0.063-0.083,0.093-0.285,0.093-0.603V45.51c0-0.272-0.016-0.45-0.05-0.536
		c-0.027-0.066-0.08-0.122-0.161-0.169c-0.115-0.063-0.235-0.093-0.361-0.093h-0.188v-0.146h2.276v0.146h-0.192
		c-0.126,0-0.245,0.03-0.357,0.09c-0.081,0.041-0.137,0.105-0.169,0.19c-0.031,0.085-0.047,0.258-0.047,0.519V47.03z"/>
	<path fill="#B47F2B" d="M67.453,44.445c0.69,0,1.287,0.261,1.792,0.785s0.758,1.177,0.758,1.96c0,0.807-0.254,1.478-0.763,2.01
		C68.731,49.734,68.114,50,67.391,50c-0.731,0-1.345-0.26-1.842-0.78c-0.498-0.52-0.747-1.193-0.747-2.018
		c0-0.843,0.288-1.532,0.862-2.065C66.162,44.676,66.759,44.445,67.453,44.445z M67.38,44.731c-0.475,0-0.857,0.176-1.145,0.529
		c-0.358,0.439-0.536,1.081-0.536,1.927c0,0.867,0.185,1.534,0.556,2.001c0.284,0.356,0.66,0.533,1.128,0.533
		c0.498,0,0.91-0.195,1.236-0.584c0.325-0.388,0.488-1.002,0.488-1.84c0-0.909-0.179-1.587-0.537-2.033
		C68.282,44.908,67.886,44.731,67.38,44.731z"/>
	<path fill="#B47F2B" d="M74.955,44.566l0.058,1.246h-0.149c-0.029-0.219-0.068-0.376-0.117-0.47
		c-0.082-0.152-0.19-0.263-0.324-0.335c-0.134-0.072-0.312-0.108-0.531-0.108h-0.748v4.059c0,0.326,0.035,0.53,0.106,0.611
		c0.099,0.11,0.252,0.165,0.458,0.165h0.184v0.144h-2.252v-0.144h0.188c0.225,0,0.384-0.069,0.479-0.204
		c0.057-0.084,0.086-0.275,0.086-0.572v-4.059h-0.638c-0.248,0-0.424,0.018-0.529,0.055c-0.136,0.049-0.252,0.144-0.349,0.286
		c-0.096,0.14-0.154,0.331-0.172,0.572h-0.149l0.063-1.246H74.955z"/>
	<path fill="#B47F2B" d="M76.89,44.856v2.1h1.167c0.303,0,0.506-0.045,0.608-0.137c0.135-0.12,0.211-0.331,0.227-0.634h0.144v1.849
		h-0.144c-0.037-0.258-0.074-0.424-0.11-0.497c-0.047-0.091-0.124-0.163-0.232-0.215c-0.107-0.052-0.272-0.079-0.494-0.079H76.89
		v1.751c0,0.235,0.01,0.378,0.032,0.429c0.02,0.05,0.057,0.091,0.11,0.121s0.152,0.045,0.297,0.045h0.902
		c0.3,0,0.519-0.02,0.654-0.063c0.136-0.042,0.266-0.124,0.391-0.247c0.162-0.162,0.328-0.406,0.498-0.733h0.157l-0.459,1.332
		h-4.093v-0.144h0.188c0.125,0,0.244-0.031,0.357-0.09c0.083-0.042,0.14-0.105,0.17-0.189c0.031-0.083,0.045-0.254,0.045-0.513
		V45.49c0-0.336-0.034-0.544-0.101-0.622c-0.094-0.105-0.251-0.157-0.47-0.157h-0.188v-0.146h4.093l0.059,1.164h-0.153
		c-0.055-0.28-0.116-0.471-0.182-0.576s-0.165-0.184-0.296-0.24c-0.105-0.039-0.288-0.058-0.552-0.058H76.89z"/>
	<path fill="#B47F2B" d="M84.714,48.409l0.129,0.028l-0.454,1.442h-4.113v-0.144h0.2c0.224,0,0.385-0.074,0.482-0.22
		c0.054-0.083,0.082-0.277,0.082-0.579v-3.428c0-0.332-0.037-0.54-0.11-0.623c-0.101-0.115-0.253-0.172-0.454-0.172h-0.2v-0.146
		h2.405v0.146c-0.282-0.003-0.48,0.024-0.593,0.078c-0.114,0.055-0.192,0.124-0.234,0.208c-0.041,0.083-0.063,0.283-0.063,0.599
		v3.337c0,0.216,0.022,0.366,0.063,0.446c0.032,0.055,0.08,0.096,0.146,0.122c0.065,0.027,0.268,0.039,0.611,0.039h0.388
		c0.407,0,0.693-0.03,0.858-0.09c0.164-0.059,0.315-0.166,0.451-0.319C84.442,48.979,84.578,48.739,84.714,48.409z"/>
</g>
<g>
	<path fill="#B47F2B" d="M24.835,20.801c-0.41,1.29-0.615,2.515-0.615,3.673c0,2.568,1.155,3.851,3.465,3.851
		c1.257,0,2.283-0.4,3.077-1.201c0.794-0.8,1.191-1.839,1.191-3.116c0.251,0.278,0.377,0.566,0.377,0.863
		c0,0.661-0.407,1.499-1.221,2.511c-1.052,1.317-2.359,1.976-3.921,1.976c-1.297,0-2.314-0.379-3.052-1.136
		c-0.738-0.758-1.107-1.802-1.107-3.132c0-1.251,0.298-2.703,0.894-4.358l-1.787-0.149c-0.523,1.416-1.241,2.7-2.154,3.851
		c-1.258,1.588-2.636,2.805-4.135,3.653c-1.499,0.847-3.019,1.271-4.561,1.271c-1.734,0-3.193-0.547-4.378-1.643
		s-1.777-2.443-1.777-4.045c0-1.429,0.483-2.607,1.449-3.534c0.966-0.926,2.193-1.39,3.683-1.39c1.251,0,2.566,0.432,3.946,1.296
		c1.38,0.863,2.619,2.03,3.717,3.499c0.139-0.463,0.209-0.883,0.209-1.26c0-1.41-0.698-2.227-2.094-2.452
		c0.113-0.238,0.189-0.417,0.229-0.536l0.149-0.397c0.007-0.02,0.023-0.07,0.05-0.149c1.634,0.298,3.259,0.506,4.874,0.626
		l0.149,0.01c0.378-1.165,0.566-2.018,0.566-2.561c0-0.245-0.099-0.367-0.298-0.367c-0.219,0-0.53,0.086-0.934,0.258l-0.119-0.318
		c0.212-0.086,0.338-0.139,0.377-0.159l1.032-0.427c0.39-0.159,0.837-0.347,1.34-0.566l-0.019,0.169
		c-0.133,1.257-0.437,2.617-0.914,4.079l1.827,0.159c0.576-1.237,1.261-2.23,2.055-2.978c0.827-0.787,1.805-1.415,2.933-1.881
		c1.128-0.467,2.218-0.7,3.27-0.7c0.814,0,1.463,0.16,1.946,0.482c0.483,0.321,0.724,0.753,0.724,1.295
		c0,0.543-0.205,1.127-0.615,1.752c-0.41,0.626-0.96,1.183-1.648,1.673c-1.476,1.052-3.534,1.578-6.174,1.578
		C26.145,20.87,25.477,20.847,24.835,20.801z M21.162,20.483l-3.385-0.377c0.489,0.509,0.734,1.188,0.734,2.035
		c0,0.807-0.175,1.876-0.526,3.206c-3.117-3.997-5.946-5.996-8.487-5.996c-1.052,0-1.934,0.344-2.645,1.032
		c-0.712,0.689-1.067,1.539-1.067,2.551c0,1.602,0.6,2.917,1.801,3.946s2.738,1.543,4.611,1.543c2.091,0,3.865-0.645,5.321-1.936
		C18.975,25.198,20.189,23.197,21.162,20.483z M25.232,19.729c0.622,0.06,1.403,0.09,2.343,0.09c2.508,0,4.315-0.341,5.42-1.023
		c0.999-0.615,1.499-1.36,1.499-2.233c0-0.549-0.245-0.996-0.734-1.34c-0.49-0.344-1.129-0.516-1.916-0.516
		c-1.489,0-2.819,0.447-3.99,1.34c-0.926,0.715-1.777,1.893-2.551,3.534L25.232,19.729z"/>
	<path fill="#B47F2B" d="M39.814,22.002c-0.351-0.033-0.642-0.05-0.874-0.05c-1.74,0-3.074,0.669-4,2.005
		c-0.364,0.529-0.672,1.136-0.923,1.821c-0.252,0.685-0.377,1.258-0.377,1.722c0,0.325,0.094,0.591,0.283,0.799
		c0.189,0.209,0.429,0.313,0.72,0.313c0.688,0,1.449-0.552,2.283-1.657c0.834-1.106,1.251-2.118,1.251-3.038
		c0-0.205-0.054-0.379-0.164-0.521c-0.109-0.142-0.24-0.213-0.392-0.213c-0.529,0-1.035,0.529-1.519,1.588
		c-0.033-0.132-0.05-0.248-0.05-0.347c0-0.41,0.255-0.84,0.764-1.29c0.509-0.45,0.992-0.675,1.449-0.675
		c0.304,0,0.562,0.124,0.774,0.372c0.212,0.248,0.318,0.551,0.318,0.908c0,1.198-0.764,2.469-2.293,3.812
		c-1.31,1.164-2.399,1.747-3.266,1.747c-0.377,0-0.69-0.136-0.938-0.407c-0.248-0.272-0.372-0.613-0.372-1.023
		c0-0.907,0.316-1.855,0.948-2.844c0.632-0.989,1.464-1.841,2.497-2.556c0.569-0.39,1.189-0.712,1.861-0.963
		c0.672-0.251,1.242-0.377,1.712-0.377c0.291,0,0.437,0.129,0.437,0.387C39.943,21.615,39.9,21.777,39.814,22.002z"/>
	<path fill="#B47F2B" d="M44.817,21.069l-0.129,0.298h-1.4l-0.079,0.169c-0.126,0.265-0.467,1.039-1.023,2.323
		c-0.225,0.523-0.543,1.244-0.953,2.164c-0.483,1.072-0.724,1.75-0.724,2.035s0.146,0.426,0.437,0.426
		c0.35,0,0.83-0.205,1.439-0.615l0.159,0.258c-0.397,0.304-0.851,0.563-1.36,0.774c-0.51,0.212-0.93,0.318-1.261,0.318
		c-0.496,0-0.744-0.195-0.744-0.585c0-0.279,0.278-1.06,0.834-2.342l1.032-2.353c0.576-1.33,0.91-2.111,1.003-2.342l0.099-0.229
		h-1.3l0.139-0.298h0.129c0.569,0,0.951-0.089,1.147-0.268c0.195-0.179,0.461-0.681,0.798-1.509c0.099,0.007,0.166,0.01,0.199,0.01
		c0.318,0,0.632-0.039,0.943-0.119c-0.073,0.192-0.202,0.506-0.386,0.943l-0.298,0.715l-0.099,0.229H44.817z"/>
	<path fill="#B47F2B" d="M48.847,24.93c0.092,0.185,0.139,0.351,0.139,0.496c0,0.635-0.441,1.366-1.321,2.194
		c-1.284,1.21-2.375,1.816-3.276,1.816c-0.774,0-1.161-0.44-1.161-1.32c0-0.993,0.303-2.035,0.908-3.126
		c0.606-1.092,1.381-1.992,2.328-2.7c1.152-0.86,2.177-1.291,3.077-1.291c0.523,0,0.784,0.192,0.784,0.576
		c0,0.252-0.125,0.554-0.377,0.908c-0.251,0.354-0.566,0.673-0.943,0.958c-0.35,0.258-0.796,0.496-1.335,0.715
		c-0.539,0.218-0.955,0.328-1.246,0.328c-0.31,0-0.526-0.172-0.645-0.516c0.278,0.04,0.499,0.059,0.665,0.059
		c0.661,0,1.272-0.19,1.831-0.571c0.559-0.38,0.838-0.792,0.838-1.236c0-0.318-0.205-0.476-0.615-0.476
		c-0.735,0-1.486,0.45-2.253,1.35c-0.543,0.635-0.99,1.377-1.34,2.224c-0.35,0.847-0.526,1.601-0.526,2.263
		c0,0.681,0.284,1.023,0.854,1.023c0.622,0,1.269-0.343,1.941-1.028C47.846,26.891,48.403,26.009,48.847,24.93z"/>
	<path fill="#B47F2B" d="M55.041,15.679c0,0.807-0.537,2.425-1.609,4.854c-1.86,4.228-2.806,6.684-2.838,7.365
		c-0.013,0.297,0.106,0.44,0.358,0.426c0.192-0.006,0.532-0.202,1.022-0.585l0.12-0.089l0.189,0.258
		c-1.066,0.932-1.847,1.399-2.344,1.399c-0.397,0-0.595-0.278-0.595-0.833c0-0.43,0.137-1.033,0.412-1.807
		c0.275-0.775,0.931-2.405,1.971-4.894l0.943-2.263c0.57-1.356,0.854-2.147,0.854-2.372c0-0.179-0.102-0.268-0.307-0.268
		c-0.073,0-0.248,0.043-0.526,0.129c-0.034,0.013-0.083,0.03-0.15,0.049l-0.098-0.287l0.149-0.06
		C53.734,16.265,54.551,15.924,55.041,15.679z"/>
</g>
</svg>
